<svg id="svgQrWrapper" viewBox="0 0 300 300" xmlns="http://www.w3.org/2000/svg" xmlns:xlink="http://www.w3.org/1999/xlink" style="width: 100%; height: 100%; background-color: rgb(255, 255, 255);"><svg fill="#000000" xmlns="http://www.w3.org/2000/svg" width="300" height="300" viewBox="0 0 300 300"><path d="M253.83.69H46.09A11.28,11.28,0,0,0,34.77,12V219.83a11.33,11.33,0,0,0,11.32,11.31H253.91a11.33,11.33,0,0,0,11.32-11.31V12A11.41,11.41,0,0,0,253.83.69Zm2.64,215.59a6.1,6.1,0,0,1-6.11,6.11H49.55a6.1,6.1,0,0,1-6.11-6.11V15.47a6.1,6.1,0,0,1,6.11-6.11H250.36a6.09,6.09,0,0,1,6.11,6.11Z"/><path id="IconCircleOutline" d="M64.42,246.09A23.53,23.53,0,1,0,88,269.62a23.47,23.47,0,0,0-23.53-23.53Z" fill-opacity="0"/><path id="PhoneIcon" d="M74.57,254.59v29.73a3.39,3.39,0,0,1-3.38,3.38H56.57a3.39,3.39,0,0,1-3.38-3.38V254.59a3.39,3.39,0,0,1,3.38-3.38H71.19A3.46,3.46,0,0,1,74.57,254.59Zm-15.11.17A1.57,1.57,0,0,0,61,256.33h5.62a1.57,1.57,0,0,0,1.56-1.57,1.62,1.62,0,0,0-1.56-1.57H61.11A1.59,1.59,0,0,0,59.46,254.76ZM72,258.64l-16.43-.17v22H72Zm-10.4,25.43a2.23,2.23,0,1,0,2.23-2.23A2.22,2.22,0,0,0,61.61,284.07Z"/><path id="PhoneIconBlack" d="M74.57,254.59v29.73a3.39,3.39,0,0,1-3.38,3.38H56.57a3.39,3.39,0,0,1-3.38-3.38V254.59a3.39,3.39,0,0,1,3.38-3.38H71.19A3.46,3.46,0,0,1,74.57,254.59Zm-15.11.17A1.57,1.57,0,0,0,61,256.33h5.62a1.57,1.57,0,0,0,1.56-1.57,1.62,1.62,0,0,0-1.56-1.57H61.11A1.59,1.59,0,0,0,59.46,254.76ZM72,258.64l-16.43-.17v22H72Zm-10.4,25.43a2.23,2.23,0,1,0,2.23-2.23A2.22,2.22,0,0,0,61.61,284.07Z" fill-opacity="0"/><path d="M235.5,240H64.42a29.68,29.68,0,0,0,0,59.36h171A29.68,29.68,0,0,0,235.5,240ZM64.42,293.15A23.53,23.53,0,1,1,88,269.62,23.47,23.47,0,0,1,64.42,293.15Z"/><g transform="translate(46.5, 12.5)scale(0.687)" fill="none"><svg width="300" height="300"><style>.background-color{ fill: #fff; }.dot-color{ fill: #000000; }.corners-square-color-0-0{ fill: #000000; }.corners-dot-color-0-0{ fill: #000000; }.corners-square-color-1-0{ fill: #000000; }.corners-dot-color-1-0{ fill: #000000; }.corners-square-color-0-1{ fill: #000000; }.corners-dot-color-0-1{ fill: #000000; }</style><defs/><g class="dot-color"><rect x="5" y="85" width="10" height="10" transform="rotate(0,10,90)"/><rect x="5" y="95" width="10" height="10" transform="rotate(0,10,100)"/><rect x="5" y="105" width="10" height="10" transform="rotate(0,10,110)"/><rect x="5" y="115" width="10" height="10" transform="rotate(0,10,120)"/><rect x="5" y="135" width="10" height="10" transform="rotate(0,10,140)"/><rect x="5" y="145" width="10" height="10" transform="rotate(0,10,150)"/><rect x="5" y="155" width="10" height="10" transform="rotate(0,10,160)"/><rect x="5" y="165" width="10" height="10" transform="rotate(0,10,170)"/><rect x="5" y="175" width="10" height="10" transform="rotate(0,10,180)"/><rect x="5" y="185" width="10" height="10" transform="rotate(0,10,190)"/><rect x="15" y="85" width="10" height="10" transform="rotate(0,20,90)"/><rect x="15" y="95" width="10" height="10" transform="rotate(0,20,100)"/><rect x="15" y="115" width="10" height="10" transform="rotate(0,20,120)"/><rect x="15" y="135" width="10" height="10" transform="rotate(0,20,140)"/><rect x="15" y="165" width="10" height="10" transform="rotate(0,20,170)"/><rect x="15" y="175" width="10" height="10" transform="rotate(0,20,180)"/><rect x="15" y="185" width="10" height="10" transform="rotate(0,20,190)"/><rect x="25" y="85" width="10" height="10" transform="rotate(0,30,90)"/><rect x="25" y="105" width="10" height="10" transform="rotate(0,30,110)"/><rect x="25" y="145" width="10" height="10" transform="rotate(0,30,150)"/><rect x="25" y="195" width="10" height="10" transform="rotate(0,30,200)"/><rect x="35" y="85" width="10" height="10" transform="rotate(0,40,90)"/><rect x="35" y="105" width="10" height="10" transform="rotate(0,40,110)"/><rect x="35" y="115" width="10" height="10" transform="rotate(0,40,120)"/><rect x="35" y="135" width="10" height="10" transform="rotate(0,40,140)"/><rect x="35" y="155" width="10" height="10" transform="rotate(0,40,160)"/><rect x="35" y="165" width="10" height="10" transform="rotate(0,40,170)"/><rect x="35" y="185" width="10" height="10" transform="rotate(0,40,190)"/><rect x="45" y="85" width="10" height="10" transform="rotate(0,50,90)"/><rect x="45" y="195" width="10" height="10" transform="rotate(0,50,200)"/><rect x="45" y="205" width="10" height="10" transform="rotate(0,50,210)"/><rect x="55" y="95" width="10" height="10" transform="rotate(0,60,100)"/><rect x="55" y="105" width="10" height="10" transform="rotate(0,60,110)"/><rect x="55" y="115" width="10" height="10" transform="rotate(0,60,120)"/><rect x="55" y="155" width="10" height="10" transform="rotate(0,60,160)"/><rect x="55" y="165" width="10" height="10" transform="rotate(0,60,170)"/><rect x="55" y="175" width="10" height="10" transform="rotate(0,60,180)"/><rect x="55" y="195" width="10" height="10" transform="rotate(0,60,200)"/><rect x="55" y="205" width="10" height="10" transform="rotate(0,60,210)"/><rect x="65" y="85" width="10" height="10" transform="rotate(0,70,90)"/><rect x="65" y="105" width="10" height="10" transform="rotate(0,70,110)"/><rect x="65" y="125" width="10" height="10" transform="rotate(0,70,130)"/><rect x="65" y="145" width="10" height="10" transform="rotate(0,70,150)"/><rect x="65" y="165" width="10" height="10" transform="rotate(0,70,170)"/><rect x="65" y="185" width="10" height="10" transform="rotate(0,70,190)"/><rect x="65" y="205" width="10" height="10" transform="rotate(0,70,210)"/><rect x="75" y="85" width="10" height="10" transform="rotate(0,80,90)"/><rect x="75" y="95" width="10" height="10" transform="rotate(0,80,100)"/><rect x="75" y="125" width="10" height="10" transform="rotate(0,80,130)"/><rect x="75" y="135" width="10" height="10" transform="rotate(0,80,140)"/><rect x="75" y="165" width="10" height="10" transform="rotate(0,80,170)"/><rect x="75" y="175" width="10" height="10" transform="rotate(0,80,180)"/><rect x="75" y="185" width="10" height="10" transform="rotate(0,80,190)"/><rect x="75" y="195" width="10" height="10" transform="rotate(0,80,200)"/><rect x="75" y="205" width="10" height="10" transform="rotate(0,80,210)"/><rect x="85" y="15" width="10" height="10" transform="rotate(0,90,20)"/><rect x="85" y="25" width="10" height="10" transform="rotate(0,90,30)"/><rect x="85" y="45" width="10" height="10" transform="rotate(0,90,50)"/><rect x="85" y="65" width="10" height="10" transform="rotate(0,90,70)"/><rect x="85" y="75" width="10" height="10" transform="rotate(0,90,80)"/><rect x="85" y="125" width="10" height="10" transform="rotate(0,90,130)"/><rect x="85" y="185" width="10" height="10" transform="rotate(0,90,190)"/><rect x="85" y="205" width="10" height="10" transform="rotate(0,90,210)"/><rect x="85" y="225" width="10" height="10" transform="rotate(0,90,230)"/><rect x="85" y="245" width="10" height="10" transform="rotate(0,90,250)"/><rect x="85" y="255" width="10" height="10" transform="rotate(0,90,260)"/><rect x="85" y="265" width="10" height="10" transform="rotate(0,90,270)"/><rect x="85" y="275" width="10" height="10" transform="rotate(0,90,280)"/><rect x="85" y="285" width="10" height="10" transform="rotate(0,90,290)"/><rect x="95" y="5" width="10" height="10" transform="rotate(0,100,10)"/><rect x="95" y="15" width="10" height="10" transform="rotate(0,100,20)"/><rect x="95" y="25" width="10" height="10" transform="rotate(0,100,30)"/><rect x="95" y="45" width="10" height="10" transform="rotate(0,100,50)"/><rect x="95" y="55" width="10" height="10" transform="rotate(0,100,60)"/><rect x="95" y="125" width="10" height="10" transform="rotate(0,100,130)"/><rect x="95" y="135" width="10" height="10" transform="rotate(0,100,140)"/><rect x="95" y="145" width="10" height="10" transform="rotate(0,100,150)"/><rect x="95" y="155" width="10" height="10" transform="rotate(0,100,160)"/><rect x="95" y="165" width="10" height="10" transform="rotate(0,100,170)"/><rect x="95" y="175" width="10" height="10" transform="rotate(0,100,180)"/><rect x="95" y="185" width="10" height="10" transform="rotate(0,100,190)"/><rect x="95" y="195" width="10" height="10" transform="rotate(0,100,200)"/><rect x="95" y="225" width="10" height="10" transform="rotate(0,100,230)"/><rect x="95" y="265" width="10" height="10" transform="rotate(0,100,270)"/><rect x="95" y="285" width="10" height="10" transform="rotate(0,100,290)"/><rect x="105" y="15" width="10" height="10" transform="rotate(0,110,20)"/><rect x="105" y="35" width="10" height="10" transform="rotate(0,110,40)"/><rect x="105" y="45" width="10" height="10" transform="rotate(0,110,50)"/><rect x="105" y="55" width="10" height="10" transform="rotate(0,110,60)"/><rect x="105" y="65" width="10" height="10" transform="rotate(0,110,70)"/><rect x="105" y="75" width="10" height="10" transform="rotate(0,110,80)"/><rect x="105" y="115" width="10" height="10" transform="rotate(0,110,120)"/><rect x="105" y="125" width="10" height="10" transform="rotate(0,110,130)"/><rect x="105" y="135" width="10" height="10" transform="rotate(0,110,140)"/><rect x="105" y="185" width="10" height="10" transform="rotate(0,110,190)"/><rect x="105" y="205" width="10" height="10" transform="rotate(0,110,210)"/><rect x="105" y="235" width="10" height="10" transform="rotate(0,110,240)"/><rect x="105" y="255" width="10" height="10" transform="rotate(0,110,260)"/><rect x="105" y="275" width="10" height="10" transform="rotate(0,110,280)"/><rect x="105" y="285" width="10" height="10" transform="rotate(0,110,290)"/><rect x="115" y="25" width="10" height="10" transform="rotate(0,120,30)"/><rect x="115" y="55" width="10" height="10" transform="rotate(0,120,60)"/><rect x="115" y="85" width="10" height="10" transform="rotate(0,120,90)"/><rect x="115" y="95" width="10" height="10" transform="rotate(0,120,100)"/><rect x="115" y="105" width="10" height="10" transform="rotate(0,120,110)"/><rect x="115" y="115" width="10" height="10" transform="rotate(0,120,120)"/><rect x="115" y="155" width="10" height="10" transform="rotate(0,120,160)"/><rect x="115" y="175" width="10" height="10" transform="rotate(0,120,180)"/><rect x="115" y="185" width="10" height="10" transform="rotate(0,120,190)"/><rect x="115" y="195" width="10" height="10" transform="rotate(0,120,200)"/><rect x="115" y="205" width="10" height="10" transform="rotate(0,120,210)"/><rect x="115" y="215" width="10" height="10" transform="rotate(0,120,220)"/><rect x="115" y="225" width="10" height="10" transform="rotate(0,120,230)"/><rect x="115" y="275" width="10" height="10" transform="rotate(0,120,280)"/><rect x="125" y="15" width="10" height="10" transform="rotate(0,130,20)"/><rect x="125" y="25" width="10" height="10" transform="rotate(0,130,30)"/><rect x="125" y="65" width="10" height="10" transform="rotate(0,130,70)"/><rect x="125" y="85" width="10" height="10" transform="rotate(0,130,90)"/><rect x="125" y="105" width="10" height="10" transform="rotate(0,130,110)"/><rect x="125" y="115" width="10" height="10" transform="rotate(0,130,120)"/><rect x="125" y="145" width="10" height="10" transform="rotate(0,130,150)"/><rect x="125" y="155" width="10" height="10" transform="rotate(0,130,160)"/><rect x="125" y="175" width="10" height="10" transform="rotate(0,130,180)"/><rect x="125" y="205" width="10" height="10" transform="rotate(0,130,210)"/><rect x="125" y="225" width="10" height="10" transform="rotate(0,130,230)"/><rect x="125" y="235" width="10" height="10" transform="rotate(0,130,240)"/><rect x="125" y="255" width="10" height="10" transform="rotate(0,130,260)"/><rect x="125" y="265" width="10" height="10" transform="rotate(0,130,270)"/><rect x="135" y="5" width="10" height="10" transform="rotate(0,140,10)"/><rect x="135" y="15" width="10" height="10" transform="rotate(0,140,20)"/><rect x="135" y="25" width="10" height="10" transform="rotate(0,140,30)"/><rect x="135" y="35" width="10" height="10" transform="rotate(0,140,40)"/><rect x="135" y="45" width="10" height="10" transform="rotate(0,140,50)"/><rect x="135" y="75" width="10" height="10" transform="rotate(0,140,80)"/><rect x="135" y="95" width="10" height="10" transform="rotate(0,140,100)"/><rect x="135" y="115" width="10" height="10" transform="rotate(0,140,120)"/><rect x="135" y="125" width="10" height="10" transform="rotate(0,140,130)"/><rect x="135" y="135" width="10" height="10" transform="rotate(0,140,140)"/><rect x="135" y="145" width="10" height="10" transform="rotate(0,140,150)"/><rect x="135" y="155" width="10" height="10" transform="rotate(0,140,160)"/><rect x="135" y="165" width="10" height="10" transform="rotate(0,140,170)"/><rect x="135" y="185" width="10" height="10" transform="rotate(0,140,190)"/><rect x="135" y="205" width="10" height="10" transform="rotate(0,140,210)"/><rect x="135" y="215" width="10" height="10" transform="rotate(0,140,220)"/><rect x="135" y="225" width="10" height="10" transform="rotate(0,140,230)"/><rect x="135" y="235" width="10" height="10" transform="rotate(0,140,240)"/><rect x="135" y="275" width="10" height="10" transform="rotate(0,140,280)"/><rect x="135" y="285" width="10" height="10" transform="rotate(0,140,290)"/><rect x="145" y="15" width="10" height="10" transform="rotate(0,150,20)"/><rect x="145" y="35" width="10" height="10" transform="rotate(0,150,40)"/><rect x="145" y="55" width="10" height="10" transform="rotate(0,150,60)"/><rect x="145" y="65" width="10" height="10" transform="rotate(0,150,70)"/><rect x="145" y="75" width="10" height="10" transform="rotate(0,150,80)"/><rect x="145" y="105" width="10" height="10" transform="rotate(0,150,110)"/><rect x="145" y="115" width="10" height="10" transform="rotate(0,150,120)"/><rect x="145" y="125" width="10" height="10" transform="rotate(0,150,130)"/><rect x="145" y="145" width="10" height="10" transform="rotate(0,150,150)"/><rect x="145" y="165" width="10" height="10" transform="rotate(0,150,170)"/><rect x="145" y="175" width="10" height="10" transform="rotate(0,150,180)"/><rect x="145" y="225" width="10" height="10" transform="rotate(0,150,230)"/><rect x="145" y="235" width="10" height="10" transform="rotate(0,150,240)"/><rect x="145" y="265" width="10" height="10" transform="rotate(0,150,270)"/><rect x="145" y="285" width="10" height="10" transform="rotate(0,150,290)"/><rect x="155" y="45" width="10" height="10" transform="rotate(0,160,50)"/><rect x="155" y="55" width="10" height="10" transform="rotate(0,160,60)"/><rect x="155" y="85" width="10" height="10" transform="rotate(0,160,90)"/><rect x="155" y="95" width="10" height="10" transform="rotate(0,160,100)"/><rect x="155" y="115" width="10" height="10" transform="rotate(0,160,120)"/><rect x="155" y="195" width="10" height="10" transform="rotate(0,160,200)"/><rect x="155" y="205" width="10" height="10" transform="rotate(0,160,210)"/><rect x="155" y="225" width="10" height="10" transform="rotate(0,160,230)"/><rect x="155" y="235" width="10" height="10" transform="rotate(0,160,240)"/><rect x="165" y="25" width="10" height="10" transform="rotate(0,170,30)"/><rect x="165" y="45" width="10" height="10" transform="rotate(0,170,50)"/><rect x="165" y="65" width="10" height="10" transform="rotate(0,170,70)"/><rect x="165" y="75" width="10" height="10" transform="rotate(0,170,80)"/><rect x="165" y="105" width="10" height="10" transform="rotate(0,170,110)"/><rect x="165" y="115" width="10" height="10" transform="rotate(0,170,120)"/><rect x="165" y="145" width="10" height="10" transform="rotate(0,170,150)"/><rect x="165" y="155" width="10" height="10" transform="rotate(0,170,160)"/><rect x="165" y="195" width="10" height="10" transform="rotate(0,170,200)"/><rect x="165" y="225" width="10" height="10" transform="rotate(0,170,230)"/><rect x="165" y="235" width="10" height="10" transform="rotate(0,170,240)"/><rect x="165" y="245" width="10" height="10" transform="rotate(0,170,250)"/><rect x="165" y="255" width="10" height="10" transform="rotate(0,170,260)"/><rect x="165" y="275" width="10" height="10" transform="rotate(0,170,280)"/><rect x="175" y="15" width="10" height="10" transform="rotate(0,180,20)"/><rect x="175" y="45" width="10" height="10" transform="rotate(0,180,50)"/><rect x="175" y="55" width="10" height="10" transform="rotate(0,180,60)"/><rect x="175" y="75" width="10" height="10" transform="rotate(0,180,80)"/><rect x="175" y="95" width="10" height="10" transform="rotate(0,180,100)"/><rect x="175" y="135" width="10" height="10" transform="rotate(0,180,140)"/><rect x="175" y="145" width="10" height="10" transform="rotate(0,180,150)"/><rect x="175" y="155" width="10" height="10" transform="rotate(0,180,160)"/><rect x="175" y="175" width="10" height="10" transform="rotate(0,180,180)"/><rect x="175" y="195" width="10" height="10" transform="rotate(0,180,200)"/><rect x="175" y="205" width="10" height="10" transform="rotate(0,180,210)"/><rect x="175" y="225" width="10" height="10" transform="rotate(0,180,230)"/><rect x="175" y="255" width="10" height="10" transform="rotate(0,180,260)"/><rect x="175" y="275" width="10" height="10" transform="rotate(0,180,280)"/><rect x="175" y="285" width="10" height="10" transform="rotate(0,180,290)"/><rect x="185" y="5" width="10" height="10" transform="rotate(0,190,10)"/><rect x="185" y="25" width="10" height="10" transform="rotate(0,190,30)"/><rect x="185" y="45" width="10" height="10" transform="rotate(0,190,50)"/><rect x="185" y="65" width="10" height="10" transform="rotate(0,190,70)"/><rect x="185" y="75" width="10" height="10" transform="rotate(0,190,80)"/><rect x="185" y="95" width="10" height="10" transform="rotate(0,190,100)"/><rect x="185" y="115" width="10" height="10" transform="rotate(0,190,120)"/><rect x="185" y="135" width="10" height="10" transform="rotate(0,190,140)"/><rect x="185" y="145" width="10" height="10" transform="rotate(0,190,150)"/><rect x="185" y="175" width="10" height="10" transform="rotate(0,190,180)"/><rect x="185" y="185" width="10" height="10" transform="rotate(0,190,190)"/><rect x="185" y="215" width="10" height="10" transform="rotate(0,190,220)"/><rect x="185" y="275" width="10" height="10" transform="rotate(0,190,280)"/><rect x="185" y="285" width="10" height="10" transform="rotate(0,190,290)"/><rect x="195" y="15" width="10" height="10" transform="rotate(0,200,20)"/><rect x="195" y="35" width="10" height="10" transform="rotate(0,200,40)"/><rect x="195" y="75" width="10" height="10" transform="rotate(0,200,80)"/><rect x="195" y="85" width="10" height="10" transform="rotate(0,200,90)"/><rect x="195" y="105" width="10" height="10" transform="rotate(0,200,110)"/><rect x="195" y="155" width="10" height="10" transform="rotate(0,200,160)"/><rect x="195" y="175" width="10" height="10" transform="rotate(0,200,180)"/><rect x="195" y="195" width="10" height="10" transform="rotate(0,200,200)"/><rect x="195" y="225" width="10" height="10" transform="rotate(0,200,230)"/><rect x="195" y="235" width="10" height="10" transform="rotate(0,200,240)"/><rect x="195" y="245" width="10" height="10" transform="rotate(0,200,250)"/><rect x="195" y="275" width="10" height="10" transform="rotate(0,200,280)"/><rect x="195" y="285" width="10" height="10" transform="rotate(0,200,290)"/><rect x="205" y="5" width="10" height="10" transform="rotate(0,210,10)"/><rect x="205" y="55" width="10" height="10" transform="rotate(0,210,60)"/><rect x="205" y="65" width="10" height="10" transform="rotate(0,210,70)"/><rect x="205" y="125" width="10" height="10" transform="rotate(0,210,130)"/><rect x="205" y="165" width="10" height="10" transform="rotate(0,210,170)"/><rect x="205" y="175" width="10" height="10" transform="rotate(0,210,180)"/><rect x="205" y="185" width="10" height="10" transform="rotate(0,210,190)"/><rect x="205" y="205" width="10" height="10" transform="rotate(0,210,210)"/><rect x="205" y="215" width="10" height="10" transform="rotate(0,210,220)"/><rect x="205" y="225" width="10" height="10" transform="rotate(0,210,230)"/><rect x="205" y="235" width="10" height="10" transform="rotate(0,210,240)"/><rect x="205" y="245" width="10" height="10" transform="rotate(0,210,250)"/><rect x="205" y="265" width="10" height="10" transform="rotate(0,210,270)"/><rect x="215" y="85" width="10" height="10" transform="rotate(0,220,90)"/><rect x="215" y="105" width="10" height="10" transform="rotate(0,220,110)"/><rect x="215" y="115" width="10" height="10" transform="rotate(0,220,120)"/><rect x="215" y="135" width="10" height="10" transform="rotate(0,220,140)"/><rect x="215" y="165" width="10" height="10" transform="rotate(0,220,170)"/><rect x="215" y="175" width="10" height="10" transform="rotate(0,220,180)"/><rect x="215" y="195" width="10" height="10" transform="rotate(0,220,200)"/><rect x="215" y="205" width="10" height="10" transform="rotate(0,220,210)"/><rect x="215" y="245" width="10" height="10" transform="rotate(0,220,250)"/><rect x="215" y="275" width="10" height="10" transform="rotate(0,220,280)"/><rect x="215" y="285" width="10" height="10" transform="rotate(0,220,290)"/><rect x="225" y="85" width="10" height="10" transform="rotate(0,230,90)"/><rect x="225" y="185" width="10" height="10" transform="rotate(0,230,190)"/><rect x="225" y="195" width="10" height="10" transform="rotate(0,230,200)"/><rect x="225" y="205" width="10" height="10" transform="rotate(0,230,210)"/><rect x="225" y="225" width="10" height="10" transform="rotate(0,230,230)"/><rect x="225" y="245" width="10" height="10" transform="rotate(0,230,250)"/><rect x="225" y="265" width="10" height="10" transform="rotate(0,230,270)"/><rect x="225" y="275" width="10" height="10" transform="rotate(0,230,280)"/><rect x="225" y="285" width="10" height="10" transform="rotate(0,230,290)"/><rect x="235" y="95" width="10" height="10" transform="rotate(0,240,100)"/><rect x="235" y="115" width="10" height="10" transform="rotate(0,240,120)"/><rect x="235" y="125" width="10" height="10" transform="rotate(0,240,130)"/><rect x="235" y="145" width="10" height="10" transform="rotate(0,240,150)"/><rect x="235" y="175" width="10" height="10" transform="rotate(0,240,180)"/><rect x="235" y="185" width="10" height="10" transform="rotate(0,240,190)"/><rect x="235" y="205" width="10" height="10" transform="rotate(0,240,210)"/><rect x="235" y="245" width="10" height="10" transform="rotate(0,240,250)"/><rect x="235" y="285" width="10" height="10" transform="rotate(0,240,290)"/><rect x="245" y="85" width="10" height="10" transform="rotate(0,250,90)"/><rect x="245" y="95" width="10" height="10" transform="rotate(0,250,100)"/><rect x="245" y="105" width="10" height="10" transform="rotate(0,250,110)"/><rect x="245" y="115" width="10" height="10" transform="rotate(0,250,120)"/><rect x="245" y="125" width="10" height="10" transform="rotate(0,250,130)"/><rect x="245" y="165" width="10" height="10" transform="rotate(0,250,170)"/><rect x="245" y="185" width="10" height="10" transform="rotate(0,250,190)"/><rect x="245" y="205" width="10" height="10" transform="rotate(0,250,210)"/><rect x="245" y="215" width="10" height="10" transform="rotate(0,250,220)"/><rect x="245" y="225" width="10" height="10" transform="rotate(0,250,230)"/><rect x="245" y="235" width="10" height="10" transform="rotate(0,250,240)"/><rect x="245" y="245" width="10" height="10" transform="rotate(0,250,250)"/><rect x="245" y="255" width="10" height="10" transform="rotate(0,250,260)"/><rect x="245" y="275" width="10" height="10" transform="rotate(0,250,280)"/><rect x="255" y="95" width="10" height="10" transform="rotate(0,260,100)"/><rect x="255" y="105" width="10" height="10" transform="rotate(0,260,110)"/><rect x="255" y="125" width="10" height="10" transform="rotate(0,260,130)"/><rect x="255" y="135" width="10" height="10" transform="rotate(0,260,140)"/><rect x="255" y="145" width="10" height="10" transform="rotate(0,260,150)"/><rect x="255" y="155" width="10" height="10" transform="rotate(0,260,160)"/><rect x="255" y="165" width="10" height="10" transform="rotate(0,260,170)"/><rect x="255" y="185" width="10" height="10" transform="rotate(0,260,190)"/><rect x="255" y="205" width="10" height="10" transform="rotate(0,260,210)"/><rect x="255" y="215" width="10" height="10" transform="rotate(0,260,220)"/><rect x="255" y="245" width="10" height="10" transform="rotate(0,260,250)"/><rect x="255" y="255" width="10" height="10" transform="rotate(0,260,260)"/><rect x="255" y="265" width="10" height="10" transform="rotate(0,260,270)"/><rect x="265" y="85" width="10" height="10" transform="rotate(0,270,90)"/><rect x="265" y="95" width="10" height="10" transform="rotate(0,270,100)"/><rect x="265" y="105" width="10" height="10" transform="rotate(0,270,110)"/><rect x="265" y="125" width="10" height="10" transform="rotate(0,270,130)"/><rect x="265" y="135" width="10" height="10" transform="rotate(0,270,140)"/><rect x="265" y="155" width="10" height="10" transform="rotate(0,270,160)"/><rect x="265" y="165" width="10" height="10" transform="rotate(0,270,170)"/><rect x="265" y="175" width="10" height="10" transform="rotate(0,270,180)"/><rect x="265" y="195" width="10" height="10" transform="rotate(0,270,200)"/><rect x="265" y="235" width="10" height="10" transform="rotate(0,270,240)"/><rect x="265" y="245" width="10" height="10" transform="rotate(0,270,250)"/><rect x="265" y="255" width="10" height="10" transform="rotate(0,270,260)"/><rect x="265" y="265" width="10" height="10" transform="rotate(0,270,270)"/><rect x="265" y="285" width="10" height="10" transform="rotate(0,270,290)"/><rect x="275" y="85" width="10" height="10" transform="rotate(0,280,90)"/><rect x="275" y="95" width="10" height="10" transform="rotate(0,280,100)"/><rect x="275" y="105" width="10" height="10" transform="rotate(0,280,110)"/><rect x="275" y="115" width="10" height="10" transform="rotate(0,280,120)"/><rect x="275" y="135" width="10" height="10" transform="rotate(0,280,140)"/><rect x="275" y="145" width="10" height="10" transform="rotate(0,280,150)"/><rect x="275" y="165" width="10" height="10" transform="rotate(0,280,170)"/><rect x="275" y="175" width="10" height="10" transform="rotate(0,280,180)"/><rect x="275" y="205" width="10" height="10" transform="rotate(0,280,210)"/><rect x="275" y="215" width="10" height="10" transform="rotate(0,280,220)"/><rect x="275" y="235" width="10" height="10" transform="rotate(0,280,240)"/><rect x="275" y="275" width="10" height="10" transform="rotate(0,280,280)"/><rect x="285" y="95" width="10" height="10" transform="rotate(0,290,100)"/><rect x="285" y="155" width="10" height="10" transform="rotate(0,290,160)"/><rect x="285" y="165" width="10" height="10" transform="rotate(0,290,170)"/><rect x="285" y="175" width="10" height="10" transform="rotate(0,290,180)"/><rect x="285" y="195" width="10" height="10" transform="rotate(0,290,200)"/><rect x="285" y="205" width="10" height="10" transform="rotate(0,290,210)"/><rect x="285" y="245" width="10" height="10" transform="rotate(0,290,250)"/><rect x="285" y="265" width="10" height="10" transform="rotate(0,290,270)"/><rect x="285" y="275" width="10" height="10" transform="rotate(0,290,280)"/><rect x="285" y="285" width="10" height="10" transform="rotate(0,290,290)"/></g><g class="corners-square-color-0-0"><rect x="5" y="5" width="10" height="10" transform="rotate(0,10,10)"/><rect x="5" y="15" width="10" height="10" transform="rotate(0,10,20)"/><rect x="5" y="25" width="10" height="10" transform="rotate(0,10,30)"/><rect x="5" y="35" width="10" height="10" transform="rotate(0,10,40)"/><rect x="5" y="45" width="10" height="10" transform="rotate(0,10,50)"/><rect x="5" y="55" width="10" height="10" transform="rotate(0,10,60)"/><rect x="5" y="65" width="10" height="10" transform="rotate(0,10,70)"/><rect x="15" y="5" width="10" height="10" transform="rotate(0,20,10)"/><rect x="15" y="65" width="10" height="10" transform="rotate(0,20,70)"/><rect x="25" y="5" width="10" height="10" transform="rotate(0,30,10)"/><rect x="25" y="65" width="10" height="10" transform="rotate(0,30,70)"/><rect x="35" y="5" width="10" height="10" transform="rotate(0,40,10)"/><rect x="35" y="65" width="10" height="10" transform="rotate(0,40,70)"/><rect x="45" y="5" width="10" height="10" transform="rotate(0,50,10)"/><rect x="45" y="65" width="10" height="10" transform="rotate(0,50,70)"/><rect x="55" y="5" width="10" height="10" transform="rotate(0,60,10)"/><rect x="55" y="65" width="10" height="10" transform="rotate(0,60,70)"/><rect x="65" y="5" width="10" height="10" transform="rotate(0,70,10)"/><rect x="65" y="15" width="10" height="10" transform="rotate(0,70,20)"/><rect x="65" y="25" width="10" height="10" transform="rotate(0,70,30)"/><rect x="65" y="35" width="10" height="10" transform="rotate(0,70,40)"/><rect x="65" y="45" width="10" height="10" transform="rotate(0,70,50)"/><rect x="65" y="55" width="10" height="10" transform="rotate(0,70,60)"/><rect x="65" y="65" width="10" height="10" transform="rotate(0,70,70)"/></g><g class="corners-dot-color-0-0"><rect x="25" y="25" width="10" height="10" transform="rotate(0,30,30)"/><rect x="25" y="35" width="10" height="10" transform="rotate(0,30,40)"/><rect x="25" y="45" width="10" height="10" transform="rotate(0,30,50)"/><rect x="35" y="25" width="10" height="10" transform="rotate(0,40,30)"/><rect x="35" y="35" width="10" height="10" transform="rotate(0,40,40)"/><rect x="35" y="45" width="10" height="10" transform="rotate(0,40,50)"/><rect x="45" y="25" width="10" height="10" transform="rotate(0,50,30)"/><rect x="45" y="35" width="10" height="10" transform="rotate(0,50,40)"/><rect x="45" y="45" width="10" height="10" transform="rotate(0,50,50)"/></g><g class="corners-square-color-1-0"><rect x="225" y="5" width="10" height="10" transform="rotate(0,230,10)"/><rect x="225" y="15" width="10" height="10" transform="rotate(0,230,20)"/><rect x="225" y="25" width="10" height="10" transform="rotate(0,230,30)"/><rect x="225" y="35" width="10" height="10" transform="rotate(0,230,40)"/><rect x="225" y="45" width="10" height="10" transform="rotate(0,230,50)"/><rect x="225" y="55" width="10" height="10" transform="rotate(0,230,60)"/><rect x="225" y="65" width="10" height="10" transform="rotate(0,230,70)"/><rect x="235" y="5" width="10" height="10" transform="rotate(0,240,10)"/><rect x="235" y="65" width="10" height="10" transform="rotate(0,240,70)"/><rect x="245" y="5" width="10" height="10" transform="rotate(0,250,10)"/><rect x="245" y="65" width="10" height="10" transform="rotate(0,250,70)"/><rect x="255" y="5" width="10" height="10" transform="rotate(0,260,10)"/><rect x="255" y="65" width="10" height="10" transform="rotate(0,260,70)"/><rect x="265" y="5" width="10" height="10" transform="rotate(0,270,10)"/><rect x="265" y="65" width="10" height="10" transform="rotate(0,270,70)"/><rect x="275" y="5" width="10" height="10" transform="rotate(0,280,10)"/><rect x="275" y="65" width="10" height="10" transform="rotate(0,280,70)"/><rect x="285" y="5" width="10" height="10" transform="rotate(0,290,10)"/><rect x="285" y="15" width="10" height="10" transform="rotate(0,290,20)"/><rect x="285" y="25" width="10" height="10" transform="rotate(0,290,30)"/><rect x="285" y="35" width="10" height="10" transform="rotate(0,290,40)"/><rect x="285" y="45" width="10" height="10" transform="rotate(0,290,50)"/><rect x="285" y="55" width="10" height="10" transform="rotate(0,290,60)"/><rect x="285" y="65" width="10" height="10" transform="rotate(0,290,70)"/></g><g class="corners-dot-color-1-0"><rect x="245" y="25" width="10" height="10" transform="rotate(0,250,30)"/><rect x="245" y="35" width="10" height="10" transform="rotate(0,250,40)"/><rect x="245" y="45" width="10" height="10" transform="rotate(0,250,50)"/><rect x="255" y="25" width="10" height="10" transform="rotate(0,260,30)"/><rect x="255" y="35" width="10" height="10" transform="rotate(0,260,40)"/><rect x="255" y="45" width="10" height="10" transform="rotate(0,260,50)"/><rect x="265" y="25" width="10" height="10" transform="rotate(0,270,30)"/><rect x="265" y="35" width="10" height="10" transform="rotate(0,270,40)"/><rect x="265" y="45" width="10" height="10" transform="rotate(0,270,50)"/></g><g class="corners-square-color-0-1"><rect x="5" y="225" width="10" height="10" transform="rotate(0,10,230)"/><rect x="5" y="235" width="10" height="10" transform="rotate(0,10,240)"/><rect x="5" y="245" width="10" height="10" transform="rotate(0,10,250)"/><rect x="5" y="255" width="10" height="10" transform="rotate(0,10,260)"/><rect x="5" y="265" width="10" height="10" transform="rotate(0,10,270)"/><rect x="5" y="275" width="10" height="10" transform="rotate(0,10,280)"/><rect x="5" y="285" width="10" height="10" transform="rotate(0,10,290)"/><rect x="15" y="225" width="10" height="10" transform="rotate(0,20,230)"/><rect x="15" y="285" width="10" height="10" transform="rotate(0,20,290)"/><rect x="25" y="225" width="10" height="10" transform="rotate(0,30,230)"/><rect x="25" y="285" width="10" height="10" transform="rotate(0,30,290)"/><rect x="35" y="225" width="10" height="10" transform="rotate(0,40,230)"/><rect x="35" y="285" width="10" height="10" transform="rotate(0,40,290)"/><rect x="45" y="225" width="10" height="10" transform="rotate(0,50,230)"/><rect x="45" y="285" width="10" height="10" transform="rotate(0,50,290)"/><rect x="55" y="225" width="10" height="10" transform="rotate(0,60,230)"/><rect x="55" y="285" width="10" height="10" transform="rotate(0,60,290)"/><rect x="65" y="225" width="10" height="10" transform="rotate(0,70,230)"/><rect x="65" y="235" width="10" height="10" transform="rotate(0,70,240)"/><rect x="65" y="245" width="10" height="10" transform="rotate(0,70,250)"/><rect x="65" y="255" width="10" height="10" transform="rotate(0,70,260)"/><rect x="65" y="265" width="10" height="10" transform="rotate(0,70,270)"/><rect x="65" y="275" width="10" height="10" transform="rotate(0,70,280)"/><rect x="65" y="285" width="10" height="10" transform="rotate(0,70,290)"/></g><g class="corners-dot-color-0-1"><rect x="25" y="245" width="10" height="10" transform="rotate(0,30,250)"/><rect x="25" y="255" width="10" height="10" transform="rotate(0,30,260)"/><rect x="25" y="265" width="10" height="10" transform="rotate(0,30,270)"/><rect x="35" y="245" width="10" height="10" transform="rotate(0,40,250)"/><rect x="35" y="255" width="10" height="10" transform="rotate(0,40,260)"/><rect x="35" y="265" width="10" height="10" transform="rotate(0,40,270)"/><rect x="45" y="245" width="10" height="10" transform="rotate(0,50,250)"/><rect x="45" y="255" width="10" height="10" transform="rotate(0,50,260)"/><rect x="45" y="265" width="10" height="10" transform="rotate(0,50,270)"/></g></svg></g></svg><g transform="translate(170,282)scale(0.8)"><style>
               .small622{
                  fill:#ffffff;
                  font-size:50px;
                  font-family: Roboto, sans-serif;
                  }</style><text x="0" y="0" text-anchor="middle" class="small622">M114</text></g></svg>